# xmcd CD database file
#
# Track frame offsets:
#	182
#	14032
#	25537
#	37370
#	49657
#	61295
#	74307
#	87282
#	99632
#	112195
#	125232
#	137457
#	150045
#	162907
#	176232
#	186857
#	200995
#	216782
#	231257
#	249945
#
# Disc length: 3513 seconds
#
# Revision: 5
# Processed by: cddbd v1.5.2PL0 Copyright (c) Steve Scherf et al.
# Submitted via: CDex 1.99.1
#
DISCID=230db714
DTITLE=Diana Ross and The Supremes - 20 Greatest Hits
DYEAR=1983
DGENRE=Blues
TTITLE0=When the lovelight starts shining through his eyes
TTITLE1=Where did our love go
TTITLE2=Baby love
TTITLE3=Come see about me
TTITLE4=My world is empty without you
TTITLE5=Stop! In the name of love
TTITLE6=Back in my arms again
TTITLE7=I hear a symphony
TTITLE8=You can't hurry love
TTITLE9=Love is like an itching in my heart
TTITLE10=You keep me hangin' on
TTITLE11=Love is here and now you're gone
TTITLE12=Reflections
TTITLE13=Love child
TTITLE14=I'll try something new
TTITLE15=I'm gonna make you love me
TTITLE16=Someday we'll be together
TTITLE17=Up the ladder to the roof
TTITLE18=Stoned love
TTITLE19=Nathan Jones
EXTD=(c) 1984 Motown Records Company\nCD-ID =WD72423 YEAR: 1983
EXTT0=
EXTT1=
EXTT2=
EXTT3=
EXTT4=
EXTT5=
EXTT6=
EXTT7=
EXTT8=
EXTT9=
EXTT10=
EXTT11=
EXTT12=
EXTT13=
EXTT14=
EXTT15=
EXTT16=
EXTT17=
EXTT18=
EXTT19=
PLAYORDER=
